# xmcd
# 
# Track frame offsets:
#     150
#     31665
#     89697
#     143302
#     176185
#     223662
#     276907
# 
# Disc length: 4243
# 
# Revision: 1
# Processed by: cddbd v1.5.2PL0 Copyright (c) Steve Scherf et al.
# Submitted via: BonkEnc v1.0.8
# 
DISCID=60109107
DTITLE=Conrad Herwig - Ao Vivo No Festival de Jazz de Guimaraes
DYEAR=1993
DGENRE=Jazz
TTITLE0=24 For Frank
TTITLE1=Diva's Dilema
TTITLE2=Refraction
TTITLE3=Amulet
TTITLE4=Red On Black
TTITLE5=Musica Callada No. 1
TTITLE6=I Mean You
EXTD=YEAR: 2000
EXTT0=
EXTT1=
EXTT2=
EXTT3=
EXTT4=
EXTT5=
EXTT6=
PLAYORDER=
